# xmcd
#
# Track frame offsets:
#	150
#	11094
#	22025
#	36220
#	50678
#	61159
#	72078
#	84689
#	96726
#	108896
#	122855
#	134173
#	147962
#	156592
#	168439
#	182413
#	192449
#	204808
#	214001
#	224526
#	234863
#	248246
#	261551
#
# Disc length: 4037 seconds
#
# Revision: 1
# Processed by: cddbd v1.5.2PL0 Copyright (c) Steve Scherf et al.
# Submitted via: audiograbber 1.83.01
#
DISCID=610fc317
DTITLE=Various Artist - The Bullet and Sur-Speed Records Story, The R&B Sessions
DYEAR=2007
DGENRE=Rhythm and Blues
TTITLE0=Larry Birdsong - Not Gonna Worry
TTITLE1=Larry Birdsong - Girl, Be Careful
TTITLE2=Johnny Bragg - Just Walking In The Rain
TTITLE3=Johnny Bragg - Goin' Over Fool Hill
TTITLE4=Shy Guy Douglas - Shy
TTITLE5=Shy Guy Douglas - Midnight Soul
TTITLE6=Rubin Russell and The Tempo Rhythms - My Eyes Don't Have The Heart To Cry
TTITLE7=Rubin Russell and The Tempo Rhythms - Let It Ring
TTITLE8=Larry Birdsong and The Buford Majors Band - Every Night In The Week
TTITLE9=Larry Birdsong and The Buford Majors Band - If I Could Only Hold Back My 
TTITLE9=Tears
TTITLE10=Doug Lane and The Soul Spinners - Short Fat Woman
TTITLE11=Thomas Henry - Nobody Else Will Do
TTITLE12=George Williams and The Buford Majors Band - Cry Cry
TTITLE13=George Williams and The Buford Majors Band - One Day
TTITLE14=George Williams and The Buford Majors Band - Have Faith
TTITLE15=George Williams and The Buford Majors Band - All In My Heart
TTITLE16=George Williams and The Buford Majors Band - Sitting And Waiting
TTITLE17=George Williams and The Buford Majors Band - You've Got To Change
TTITLE18=George Williams and The Buford Majors Band - Snap Your Finger
TTITLE19=George Williams and The Buford Majors Band - Kiss And Run
TTITLE20=George Williams and The Buford Majors Band - I'm So Grateful
TTITLE21=Levert Allison - Hear That River
TTITLE22=Willie Gunn - The Old Man
EXTD=
EXTT0=
EXTT1=
EXTT2=
EXTT3=
EXTT4=
EXTT5=
EXTT6=
EXTT7=
EXTT8=
EXTT9=
EXTT10=
EXTT11=
EXTT12=
EXTT13=
EXTT14=
EXTT15=
EXTT16=
EXTT17=
EXTT18=
EXTT19=
EXTT20=
EXTT21=
EXTT22=
PLAYORDER=
